<svg xmlns="http://www.w3.org/2000/svg" xmlns:xlink="http://www.w3.org/1999/xlink" version="1.1" viewBox="0 0 702 312"><g> <!-- Association care resource management care care -->
<line x1="118" y1="35" x2="297" y2="35" stroke="black" stroke-width="2" /><text x="130" y="28" text-anchor="middle" font-family="Cambria" font-size="12" fill="black"><tspan x="130" y="28"  text-anchor="middle">1..*</tspan></text>
<text x="287" y="28" text-anchor="middle" font-family="Cambria" font-size="12" fill="black"><tspan x="287" y="28"  text-anchor="middle">0..*</tspan></text>
<polygon points="273,35 283,30 293,35 283,40" fill="white" stroke="black" stroke-width="2" />

</g>
<g><!-- care resource management -->
<a xlink:href="care resource management.svg"><rect x="10" y="10" width="108" height="50" fill="whitesmoke" stroke="black" stroke-width="2" ><title>activities to direct and control the supply and use of the care resources required to perform care activities</title></rect><text x="64" y="20" text-anchor="middle" font-family="Cambria" font-size="12" fill="black"><tspan x="64" y="20"  text-anchor="middle">care resource</tspan><tspan x="64" y="34"  text-anchor="middle">management</tspan></text>
</a></g>
<g> <!-- Association resource care care -->
<line x1="118" y1="95" x2="297" y2="95" stroke="black" stroke-width="2" /><text x="130" y="88" text-anchor="middle" font-family="Cambria" font-size="12" fill="black"><tspan x="130" y="88"  text-anchor="middle">1..*</tspan></text>
<text x="287" y="88" text-anchor="middle" font-family="Cambria" font-size="12" fill="black"><tspan x="287" y="88"  text-anchor="middle">0..*</tspan></text>
<polygon points="273,95 283,90 293,95 283,100" fill="white" stroke="black" stroke-width="2" />

</g>
<g><!-- resource -->
<a xlink:href="resource.svg"><rect x="10" y="70" width="108" height="50" fill="white" stroke="black" stroke-width="2" ><title>asset that is utilized or consumed during the execution of activities </title></rect><text x="64" y="80" text-anchor="middle" font-family="Cambria" font-size="12" fill="black"><tspan x="64" y="80"  text-anchor="middle">resource</tspan></text>
</a></g>
<g> <!-- Association care activity care care -->
<line x1="118" y1="155" x2="297" y2="155" stroke="black" stroke-width="2" /><text x="130" y="148" text-anchor="middle" font-family="Cambria" font-size="12" fill="black"><tspan x="130" y="148"  text-anchor="middle">1..*</tspan></text>
<text x="287" y="148" text-anchor="middle" font-family="Cambria" font-size="12" fill="black"><tspan x="287" y="148"  text-anchor="middle">0..*</tspan></text>
<polygon points="275,155 285,150 295,155 285,160" fill="black" stroke="black" stroke-width="2" />

</g>
<g><!-- care activity -->
<a xlink:href="care activity.svg"><rect x="10" y="130" width="108" height="50" fill="whitesmoke" stroke="black" stroke-width="2" ><title>activity intended to improve or maintain a health state </title></rect><text x="64" y="140" text-anchor="middle" font-family="Cambria" font-size="12" fill="black"><tspan x="64" y="140"  text-anchor="middle">care activity</tspan></text>
</a></g>
<g> <!-- Association continuity of care relates to the delivering of care -->
<line x1="118" y1="215" x2="297" y2="215" stroke="black" stroke-width="2" /><text x="130" y="208" text-anchor="middle" font-family="Cambria" font-size="12" fill="black"><tspan x="130" y="208"  text-anchor="middle">0..*</tspan></text>
<text x="287" y="208" text-anchor="middle" font-family="Cambria" font-size="12" fill="black"><tspan x="287" y="208"  text-anchor="middle">0..*</tspan></text>
<text x="207" y="229" text-anchor="middle" font-family="Cambria" font-size="12" fill="black"><tspan x="207" y="229"  text-anchor="middle">relates to the delivering</tspan><tspan x="207" y="243"  text-anchor="middle">of</tspan></text>

</g>
<g><!-- continuity of care -->
<a xlink:href="continuity of care.svg"><rect x="10" y="190" width="108" height="50" fill="white" stroke="black" stroke-width="2" ><title>coherent and interconnected series of care events over time</title></rect><text x="64" y="200" text-anchor="middle" font-family="Cambria" font-size="12" fill="black"><tspan x="64" y="200"  text-anchor="middle">continuity of</tspan><tspan x="64" y="214"  text-anchor="middle">care</tspan></text>
</a></g>
<g> <!-- Association subject of care seeks to receive, is receiving, or has received care -->
<line x1="118" y1="275" x2="297" y2="275" stroke="black" stroke-width="2" /><text x="130" y="268" text-anchor="middle" font-family="Cambria" font-size="12" fill="black"><tspan x="130" y="268"  text-anchor="middle">1..*</tspan></text>
<text x="287" y="268" text-anchor="middle" font-family="Cambria" font-size="12" fill="black"><tspan x="287" y="268"  text-anchor="middle">1..*</tspan></text>
<text x="207" y="289" text-anchor="middle" font-family="Cambria" font-size="12" fill="black"><tspan x="207" y="289"  text-anchor="middle">seeks to receive, is receiving,</tspan><tspan x="207" y="303"  text-anchor="middle">or has received</tspan></text>

</g>
<g><!-- subject of care -->
<a xlink:href="subject of care.svg"><rect x="10" y="250" width="108" height="50" fill="whitesmoke" stroke="black" stroke-width="2" ><title>person seeking to receive, receiving, or having received care</title></rect><text x="64" y="260" text-anchor="middle" font-family="Cambria" font-size="12" fill="black"><tspan x="64" y="260"  text-anchor="middle">subject of care</tspan></text>
</a></g>
<g><!-- care -->
<a xlink:href="care.svg"><rect x="297" y="10" width="108" height="300" fill="white" stroke="black" stroke-width="2" ><title>care activities, services, management or supplies related to the health of an individual   </title></rect><text x="351" y="20" text-anchor="middle" font-family="Cambria" font-size="12" fill="black"><tspan x="351" y="20"  text-anchor="middle">care</tspan></text>
</a></g>
</svg>