<svg xmlns="http://www.w3.org/2000/svg" xmlns:xlink="http://www.w3.org/1999/xlink" version="1.1" viewBox="0 0 702 402" aria-labelledby="title desc" role="img"><title id="title">UML Class Diagram of care third party and related concepts</title><desc  id="desc">An UML Class Diagram of the concept care third party and the concepts related to it.</desc><!-- Generalisations of the Focal Class care third party
 -->
<g><!-- care actor -->
<a xlink:href="care actor.svg" role="link"><rect x="297" y="10" width="108" height="50" fill="white" stroke="black" stroke-width="2" ><title>organization or person participating in care</title></rect><text x="351" y="30" text-anchor="middle" font-family="Cambria" font-size="12" fill="black"><tspan x="351" y="30"  text-anchor="middle">care actor</tspan></text>
</a></g>
<!-- (351,135) to (351,62) care third party has generalization care actor -->
<line x1="351" y1="135" x2="351" y2="115" stroke="black" stroke-width="2" /><line x1="351" y1="62" x2="351" y2="115" stroke="black" stroke-width="2" /><line x1="351" y1="115" x2="351" y2="115" stroke="black" stroke-width="2" /><polygon points="351,62 346,72 356,72" fill="white" stroke="black" stroke-width="2" /><g> <!-- Association care third party plays third party care performer -->
<line x1="405" y1="170" x2="584" y2="170" stroke="black" stroke-width="2" /><text x="417" y="163" text-anchor="middle" font-family="Cambria" font-size="12" fill="black"><tspan x="417" y="163"  text-anchor="middle">0..*</tspan></text>
<text x="571" y="163" text-anchor="middle" font-family="Cambria" font-size="12" fill="black"><tspan x="571" y="163"  text-anchor="middle">0..*</tspan></text>
<text x="494" y="184" text-anchor="middle" font-family="Cambria" font-size="12" fill="black"><tspan x="494" y="184"  text-anchor="middle">plays</tspan></text>
</g>
<g><!-- third party care performer -->
<a xlink:href="third party care performer.svg" role="link"><rect x="584" y="145" width="108" height="50" fill="white" stroke="black" stroke-width="2" ><title>role taken by care third party when performing care.</title></rect><text x="638" y="165" text-anchor="middle" font-family="Cambria" font-size="12" fill="black"><tspan x="638" y="165"  text-anchor="middle">third party care</tspan><tspan x="638" y="179"  text-anchor="middle">performer</tspan></text>
</a></g>
<g> <!-- Association care third party supports subject of care -->
<line x1="405" y1="230" x2="584" y2="230" stroke="black" stroke-width="2" /><text x="417" y="223" text-anchor="middle" font-family="Cambria" font-size="12" fill="black"><tspan x="417" y="223"  text-anchor="middle">0..*</tspan></text>
<text x="571" y="223" text-anchor="middle" font-family="Cambria" font-size="12" fill="black"><tspan x="571" y="223"  text-anchor="middle">1..*</tspan></text>
<text x="494" y="244" text-anchor="middle" font-family="Cambria" font-size="12" fill="black"><tspan x="494" y="244"  text-anchor="middle">supports</tspan></text>
</g>
<g><!-- subject of care -->
<a xlink:href="subject of care.svg" role="link"><rect x="584" y="205" width="108" height="50" fill="white" stroke="black" stroke-width="2" ><title>person seeking to receive, receiving, or having received care</title></rect><text x="638" y="225" text-anchor="middle" font-family="Cambria" font-size="12" fill="black"><tspan x="638" y="225"  text-anchor="middle">subject of care</tspan></text>
</a></g>
<g><!-- care third party -->
<a xlink:href="care third party.svg" role="link"><rect x="297" y="135" width="108" height="130" fill="white" stroke="black" stroke-width="2" ><title>care actor other than a care provider or the subject of care</title></rect><text x="351" y="155" text-anchor="middle" font-family="Cambria" font-size="12" fill="black"><tspan x="351" y="155"  text-anchor="middle">care third party</tspan></text>
</a></g>
<!-- (117,342) to (351,267) other carer has generalization care third party -->
<line x1="117" y1="342" x2="117" y2="322" stroke="black" stroke-width="2" /><line x1="351" y1="267" x2="351" y2="322" stroke="black" stroke-width="2" /><line x1="117" y1="322" x2="351" y2="322" stroke="black" stroke-width="2" /><polygon points="351,267 346,277 356,277" fill="white" stroke="black" stroke-width="2" /><g><!-- other carer -->
<a xlink:href="other carer.svg" role="link"><rect x="63" y="342" width="108" height="50" fill="white" stroke="black" stroke-width="2" ><title>person being a care third party</title></rect><text x="117" y="362" text-anchor="middle" font-family="Cambria" font-size="12" fill="black"><tspan x="117" y="362"  text-anchor="middle">other carer</tspan></text>
</a></g>
<!-- (351,342) to (351,267) care supporting organization has generalization care third party -->
<line x1="351" y1="342" x2="351" y2="322" stroke="black" stroke-width="2" /><line x1="351" y1="267" x2="351" y2="322" stroke="black" stroke-width="2" /><line x1="351" y1="322" x2="351" y2="322" stroke="black" stroke-width="2" /><polygon points="351,267 346,277 356,277" fill="white" stroke="black" stroke-width="2" /><g><!-- care supporting organization -->
<a xlink:href="care supporting organization.svg" role="link"><rect x="297" y="342" width="108" height="50" fill="white" stroke="black" stroke-width="2" ><title>organization that is a care third party</title></rect><text x="351" y="362" text-anchor="middle" font-family="Cambria" font-size="12" fill="black"><tspan x="351" y="362"  text-anchor="middle">care supporting</tspan><tspan x="351" y="376"  text-anchor="middle">organization</tspan></text>
</a></g>
<!-- (585,342) to (351,267) subject of care proxy has generalization care third party -->
<line x1="585" y1="342" x2="585" y2="322" stroke="black" stroke-width="2" /><line x1="351" y1="267" x2="351" y2="322" stroke="black" stroke-width="2" /><line x1="585" y1="322" x2="351" y2="322" stroke="black" stroke-width="2" /><polygon points="351,267 346,277 356,277" fill="white" stroke="black" stroke-width="2" /><g><!-- subject of care proxy -->
<a xlink:href="subject of care proxy.svg" role="link"><rect x="531" y="342" width="108" height="50" fill="white" stroke="black" stroke-width="2" ><title>person with authority to take decisions on behalf of a subject of care</title></rect><text x="585" y="362" text-anchor="middle" font-family="Cambria" font-size="12" fill="black"><tspan x="585" y="362"  text-anchor="middle">subject of care</tspan><tspan x="585" y="376"  text-anchor="middle">proxy</tspan></text>
</a></g>
</svg>