<svg xmlns="http://www.w3.org/2000/svg" xmlns:xlink="http://www.w3.org/1999/xlink" version="1.1" viewBox="0 0 702 947"><g> <!-- Association care commitment relates to the provision of care activity -->
<line x1="118" y1="35" x2="297" y2="35" stroke="black" stroke-width="2" /><text x="130" y="28" text-anchor="middle" font-family="Cambria" font-size="12" fill="black"><tspan x="130" y="28"  text-anchor="middle">1</tspan></text>
<text x="287" y="28" text-anchor="middle" font-family="Cambria" font-size="12" fill="black"><tspan x="287" y="28"  text-anchor="middle">1..*</tspan></text>
<text x="207" y="49" text-anchor="middle" font-family="Cambria" font-size="12" fill="black"><tspan x="207" y="49"  text-anchor="middle">relates to the provision</tspan><tspan x="207" y="63"  text-anchor="middle">of</tspan></text>

</g>
<g><!-- care commitment -->
<a xlink:href="care commitment.svg"><rect x="10" y="10" width="108" height="50" fill="whitesmoke" stroke="black" stroke-width="2" ><title>acceptance of a care request</title></rect><text x="64" y="20" text-anchor="middle" font-family="Cambria" font-size="12" fill="black"><tspan x="64" y="20"  text-anchor="middle">care commitment</tspan></text>
</a></g>
<g> <!-- Association care performer delivers care activity -->
<line x1="118" y1="95" x2="297" y2="95" stroke="black" stroke-width="2" /><text x="130" y="88" text-anchor="middle" font-family="Cambria" font-size="12" fill="black"><tspan x="130" y="88"  text-anchor="middle">1..*</tspan></text>
<text x="287" y="88" text-anchor="middle" font-family="Cambria" font-size="12" fill="black"><tspan x="287" y="88"  text-anchor="middle">1..*</tspan></text>
<text x="207" y="109" text-anchor="middle" font-family="Cambria" font-size="12" fill="black"><tspan x="207" y="109"  text-anchor="middle">delivers</tspan></text>

</g>
<g><!-- care performer -->
<a xlink:href="care performer.svg"><rect x="10" y="70" width="108" height="50" fill="whitesmoke" stroke="black" stroke-width="2" ><title>role adopted by care personnel when performing care</title></rect><text x="64" y="80" text-anchor="middle" font-family="Cambria" font-size="12" fill="black"><tspan x="64" y="80"  text-anchor="middle">care performer</tspan></text>
</a></g>
<g> <!-- Association automated care reviewed during care activity -->
<line x1="118" y1="155" x2="297" y2="155" stroke="black" stroke-width="2" /><text x="130" y="148" text-anchor="middle" font-family="Cambria" font-size="12" fill="black"><tspan x="130" y="148"  text-anchor="middle">0..*</tspan></text>
<text x="287" y="148" text-anchor="middle" font-family="Cambria" font-size="12" fill="black"><tspan x="287" y="148"  text-anchor="middle">0..*</tspan></text>
<text x="207" y="169" text-anchor="middle" font-family="Cambria" font-size="12" fill="black"><tspan x="207" y="169"  text-anchor="middle">reviewed during</tspan></text>

</g>
<g> <!-- Association automated care initiated during care activity -->
<line x1="118" y1="205" x2="297" y2="205" stroke="black" stroke-width="2" /><text x="130" y="198" text-anchor="middle" font-family="Cambria" font-size="12" fill="black"><tspan x="130" y="198"  text-anchor="middle">0..*</tspan></text>
<text x="287" y="198" text-anchor="middle" font-family="Cambria" font-size="12" fill="black"><tspan x="287" y="198"  text-anchor="middle">1</tspan></text>
<text x="207" y="219" text-anchor="middle" font-family="Cambria" font-size="12" fill="black"><tspan x="207" y="219"  text-anchor="middle">initiated during</tspan></text>

</g>
<g> <!-- Association automated care terminated during care activity -->
<line x1="118" y1="255" x2="297" y2="255" stroke="black" stroke-width="2" /><text x="130" y="248" text-anchor="middle" font-family="Cambria" font-size="12" fill="black"><tspan x="130" y="248"  text-anchor="middle">0..*</tspan></text>
<text x="287" y="248" text-anchor="middle" font-family="Cambria" font-size="12" fill="black"><tspan x="287" y="248"  text-anchor="middle">1</tspan></text>
<text x="207" y="269" text-anchor="middle" font-family="Cambria" font-size="12" fill="black"><tspan x="207" y="269"  text-anchor="middle">terminated during</tspan></text>

</g>
<g><!-- automated care -->
<a xlink:href="automated care.svg"><rect x="10" y="130" width="108" height="150" fill="white" stroke="black" stroke-width="2" ><title>care initiated by a responsible care actor and thereafter delivered automatically by an automatic medical device</title></rect><text x="64" y="140" text-anchor="middle" font-family="Cambria" font-size="12" fill="black"><tspan x="64" y="140"  text-anchor="middle">automated care</tspan></text>
</a></g>
<g> <!-- Association care evaluation evaluates aspects of care activity -->
<line x1="118" y1="315" x2="297" y2="315" stroke="black" stroke-width="2" /><text x="130" y="308" text-anchor="middle" font-family="Cambria" font-size="12" fill="black"><tspan x="130" y="308"  text-anchor="middle">0..*</tspan></text>
<text x="287" y="308" text-anchor="middle" font-family="Cambria" font-size="12" fill="black"><tspan x="287" y="308"  text-anchor="middle">1..*</tspan></text>
<text x="207" y="329" text-anchor="middle" font-family="Cambria" font-size="12" fill="black"><tspan x="207" y="329"  text-anchor="middle">evaluates aspects of</tspan></text>

</g>
<g><!-- care evaluation -->
<a xlink:href="care evaluation.svg"><rect x="10" y="290" width="108" height="50" fill="white" stroke="black" stroke-width="2" ><title>care activity where aspects of at least one other care activity are evaluated</title></rect><text x="64" y="300" text-anchor="middle" font-family="Cambria" font-size="12" fill="black"><tspan x="64" y="300"  text-anchor="middle">care evaluation</tspan></text>
</a></g>
<g> <!-- Association care activity management manages care activity -->
<line x1="118" y1="375" x2="297" y2="375" stroke="black" stroke-width="2" /><text x="130" y="368" text-anchor="middle" font-family="Cambria" font-size="12" fill="black"><tspan x="130" y="368"  text-anchor="middle">0..*</tspan></text>
<text x="287" y="368" text-anchor="middle" font-family="Cambria" font-size="12" fill="black"><tspan x="287" y="368"  text-anchor="middle">1..*</tspan></text>
<text x="207" y="389" text-anchor="middle" font-family="Cambria" font-size="12" fill="black"><tspan x="207" y="389"  text-anchor="middle">manages</tspan></text>

</g>
<g><!-- care activity management -->
<a xlink:href="care activity management.svg"><rect x="10" y="350" width="108" height="50" fill="white" stroke="black" stroke-width="2" ><title>care activity during which the status of care activities in a care plan are changed</title></rect><text x="64" y="360" text-anchor="middle" font-family="Cambria" font-size="12" fill="black"><tspan x="64" y="360"  text-anchor="middle">care activity</tspan><tspan x="64" y="374"  text-anchor="middle">management</tspan></text>
</a></g>
<g> <!-- Association care plan care activity care activity -->
<line x1="118" y1="435" x2="297" y2="435" stroke="black" stroke-width="2" /><text x="130" y="428" text-anchor="middle" font-family="Cambria" font-size="12" fill="black"><tspan x="130" y="428"  text-anchor="middle">0..*</tspan></text>
<text x="287" y="428" text-anchor="middle" font-family="Cambria" font-size="12" fill="black"><tspan x="287" y="428"  text-anchor="middle">1..*</tspan></text>
<text x="207" y="449" text-anchor="middle" font-family="Cambria" font-size="12" fill="black"><tspan x="207" y="449"  text-anchor="middle">care activity</tspan></text>

</g>
<g><!-- care plan -->
<a xlink:href="care plan.svg"><rect x="10" y="410" width="108" height="50" fill="whitesmoke" stroke="black" stroke-width="2" ><title>dynamic, personalized plan including identified needed eligible social care activity, health objectives and care goals, relating to one or more specified health needs in a care process</title></rect><text x="64" y="420" text-anchor="middle" font-family="Cambria" font-size="12" fill="black"><tspan x="64" y="420"  text-anchor="middle">care plan</tspan></text>
</a></g>
<g> <!-- Association health record is accessed during care activity -->
<line x1="118" y1="495" x2="297" y2="495" stroke="black" stroke-width="2" /><text x="130" y="488" text-anchor="middle" font-family="Cambria" font-size="12" fill="black"><tspan x="130" y="488"  text-anchor="middle">0..*</tspan></text>
<text x="287" y="488" text-anchor="middle" font-family="Cambria" font-size="12" fill="black"><tspan x="287" y="488"  text-anchor="middle">0..*</tspan></text>
<text x="207" y="509" text-anchor="middle" font-family="Cambria" font-size="12" fill="black"><tspan x="207" y="509"  text-anchor="middle">is accessed during</tspan></text>

</g>
<g><!-- health record -->
<a xlink:href="health record.svg"><rect x="10" y="470" width="108" height="50" fill="whitesmoke" stroke="black" stroke-width="2" ><title>data repository regarding the health and care of a subject of care</title></rect><text x="64" y="480" text-anchor="middle" font-family="Cambria" font-size="12" fill="black"><tspan x="64" y="480"  text-anchor="middle">health record</tspan></text>
</a></g>
<g> <!-- Association care activities bundle care activity care activity -->
<line x1="118" y1="565" x2="297" y2="565" stroke="black" stroke-width="2" /><text x="130" y="558" text-anchor="middle" font-family="Cambria" font-size="12" fill="black"><tspan x="130" y="558"  text-anchor="middle">0..*</tspan></text>
<text x="287" y="558" text-anchor="middle" font-family="Cambria" font-size="12" fill="black"><tspan x="287" y="558"  text-anchor="middle">1..*</tspan></text>
<text x="207" y="579" text-anchor="middle" font-family="Cambria" font-size="12" fill="black"><tspan x="207" y="579"  text-anchor="middle">care activity</tspan></text>

</g>
<g><!-- care activities bundle -->
<a xlink:href="care activities bundle.svg"><rect x="10" y="540" width="108" height="50" fill="white" stroke="black" stroke-width="2" ><title>set of care activities</title></rect><text x="64" y="550" text-anchor="middle" font-family="Cambria" font-size="12" fill="black"><tspan x="64" y="550"  text-anchor="middle">care activities</tspan><tspan x="64" y="564"  text-anchor="middle">bundle</tspan></text>
</a></g>
<g> <!-- Association care actor performs care activity -->
<line x1="118" y1="625" x2="297" y2="625" stroke="black" stroke-width="2" /><text x="130" y="618" text-anchor="middle" font-family="Cambria" font-size="12" fill="black"><tspan x="130" y="618"  text-anchor="middle">1..*</tspan></text>
<text x="287" y="618" text-anchor="middle" font-family="Cambria" font-size="12" fill="black"><tspan x="287" y="618"  text-anchor="middle">0..*</tspan></text>
<text x="207" y="639" text-anchor="middle" font-family="Cambria" font-size="12" fill="black"><tspan x="207" y="639"  text-anchor="middle">performs</tspan></text>

</g>
<g><!-- care actor -->
<a xlink:href="care actor.svg"><rect x="10" y="600" width="108" height="50" fill="whitesmoke" stroke="black" stroke-width="2" ><title>organization or person participating in care</title></rect><text x="64" y="610" text-anchor="middle" font-family="Cambria" font-size="12" fill="black"><tspan x="64" y="610"  text-anchor="middle">care actor</tspan></text>
</a></g>
<g> <!-- Association care activity is recorded in health record -->
<line x1="405" y1="35" x2="584" y2="35" stroke="black" stroke-width="2" /><text x="417" y="28" text-anchor="middle" font-family="Cambria" font-size="12" fill="black"><tspan x="417" y="28"  text-anchor="middle">1..*</tspan></text>
<text x="565" y="28" text-anchor="middle" font-family="Cambria" font-size="12" fill="black"><tspan x="565" y="28"  text-anchor="middle">0..*</tspan></text>
<text x="494" y="49" text-anchor="middle" font-family="Cambria" font-size="12" fill="black"><tspan x="494" y="49"  text-anchor="middle">is recorded in</tspan></text>
</g>
<g><!-- health record -->
<a xlink:href="health record.svg"><rect x="584" y="10" width="108" height="50" fill="whitesmoke" stroke="black" stroke-width="2" ><title>data repository regarding the health and care of a subject of care</title></rect><text x="638" y="20" text-anchor="middle" font-family="Cambria" font-size="12" fill="black"><tspan x="638" y="20"  text-anchor="middle">health record</tspan></text>
</a></g>
<g> <!-- Association care activity care care -->
<line x1="405" y1="95" x2="584" y2="95" stroke="black" stroke-width="2" /><text x="417" y="88" text-anchor="middle" font-family="Cambria" font-size="12" fill="black"><tspan x="417" y="88"  text-anchor="middle">1..*</tspan></text>
<text x="565" y="88" text-anchor="middle" font-family="Cambria" font-size="12" fill="black"><tspan x="565" y="88"  text-anchor="middle">0..*</tspan></text>
<polygon points="562,95 572,90 582,95 572,100" fill="black" stroke="black" stroke-width="2" />
</g>
<g><!-- care -->
<a xlink:href="care.svg"><rect x="584" y="70" width="108" height="50" fill="whitesmoke" stroke="black" stroke-width="2" ><title>care activities, services, management or supplies related to the health of an individual   </title></rect><text x="638" y="80" text-anchor="middle" font-family="Cambria" font-size="12" fill="black"><tspan x="638" y="80"  text-anchor="middle">care</tspan></text>
</a></g>
<g> <!-- Association care activity care process care process -->
<line x1="405" y1="155" x2="584" y2="155" stroke="black" stroke-width="2" /><text x="417" y="148" text-anchor="middle" font-family="Cambria" font-size="12" fill="black"><tspan x="417" y="148"  text-anchor="middle">1..*</tspan></text>
<text x="565" y="148" text-anchor="middle" font-family="Cambria" font-size="12" fill="black"><tspan x="565" y="148"  text-anchor="middle">0..*</tspan></text>
<polygon points="562,155 572,150 582,155 572,160" fill="black" stroke="black" stroke-width="2" />
</g>
<g><!-- care process -->
<a xlink:href="care process.svg"><rect x="584" y="130" width="108" height="50" fill="whitesmoke" stroke="black" stroke-width="2" ><title>set of interrelated or interacting care activities which transforms inputs into outputs</title></rect><text x="638" y="140" text-anchor="middle" font-family="Cambria" font-size="12" fill="black"><tspan x="638" y="140"  text-anchor="middle">care process</tspan></text>
</a></g>
<g> <!-- Association care activity requires care resource management -->
<line x1="405" y1="215" x2="584" y2="215" stroke="black" stroke-width="2" /><text x="417" y="208" text-anchor="middle" font-family="Cambria" font-size="12" fill="black"><tspan x="417" y="208"  text-anchor="middle">1..*</tspan></text>
<text x="565" y="208" text-anchor="middle" font-family="Cambria" font-size="12" fill="black"><tspan x="565" y="208"  text-anchor="middle">0..*</tspan></text>
<text x="494" y="229" text-anchor="middle" font-family="Cambria" font-size="12" fill="black"><tspan x="494" y="229"  text-anchor="middle">requires</tspan></text>
</g>
<g><!-- care resource management -->
<a xlink:href="care resource management.svg"><rect x="584" y="190" width="108" height="50" fill="whitesmoke" stroke="black" stroke-width="2" ><title>activities to direct and control the supply and use of the care resources required to perform care activities</title></rect><text x="638" y="200" text-anchor="middle" font-family="Cambria" font-size="12" fill="black"><tspan x="638" y="200"  text-anchor="middle">care resource</tspan><tspan x="638" y="214"  text-anchor="middle">management</tspan></text>
</a></g>
<g> <!-- Association care activity is performed during care activity period -->
<line x1="405" y1="275" x2="584" y2="275" stroke="black" stroke-width="2" /><text x="417" y="268" text-anchor="middle" font-family="Cambria" font-size="12" fill="black"><tspan x="417" y="268"  text-anchor="middle">1..*</tspan></text>
<text x="576" y="268" text-anchor="middle" font-family="Cambria" font-size="12" fill="black"><tspan x="576" y="268"  text-anchor="middle">1</tspan></text>
<text x="494" y="289" text-anchor="middle" font-family="Cambria" font-size="12" fill="black"><tspan x="494" y="289"  text-anchor="middle">is performed during</tspan></text>
</g>
<g><!-- care activity period -->
<a xlink:href="care activity period.svg"><rect x="584" y="250" width="108" height="50" fill="whitesmoke" stroke="black" stroke-width="2" ><title>time interval during which care activities are performed for a subject of care</title></rect><text x="638" y="260" text-anchor="middle" font-family="Cambria" font-size="12" fill="black"><tspan x="638" y="260"  text-anchor="middle">care activity</tspan><tspan x="638" y="274"  text-anchor="middle">period</tspan></text>
</a></g>
<g> <!-- Association care activity targets care goal -->
<line x1="405" y1="335" x2="584" y2="335" stroke="black" stroke-width="2" /><text x="417" y="328" text-anchor="middle" font-family="Cambria" font-size="12" fill="black"><tspan x="417" y="328"  text-anchor="middle">1..*</tspan></text>
<text x="565" y="328" text-anchor="middle" font-family="Cambria" font-size="12" fill="black"><tspan x="565" y="328"  text-anchor="middle">1..*</tspan></text>
<text x="494" y="349" text-anchor="middle" font-family="Cambria" font-size="12" fill="black"><tspan x="494" y="349"  text-anchor="middle">targets</tspan></text>
</g>
<g><!-- care goal -->
<a xlink:href="care goal.svg"><rect x="584" y="310" width="108" height="50" fill="whitesmoke" stroke="black" stroke-width="2" ><title>desired achievement of one or more care activities, considered as an intermediate operational step to reach a specific health objective</title></rect><text x="638" y="320" text-anchor="middle" font-family="Cambria" font-size="12" fill="black"><tspan x="638" y="320"  text-anchor="middle">care goal</tspan></text>
</a></g>
<g> <!-- Association care activity requires care resource care resource -->
<line x1="405" y1="395" x2="584" y2="395" stroke="black" stroke-width="2" /><text x="417" y="388" text-anchor="middle" font-family="Cambria" font-size="12" fill="black"><tspan x="417" y="388"  text-anchor="middle">1..*</tspan></text>
<text x="565" y="388" text-anchor="middle" font-family="Cambria" font-size="12" fill="black"><tspan x="565" y="388"  text-anchor="middle">1..*</tspan></text>
<text x="494" y="409" text-anchor="middle" font-family="Cambria" font-size="12" fill="black"><tspan x="494" y="409"  text-anchor="middle">requires care resource</tspan></text>
</g>
<g><!-- care resource -->
<a xlink:href="care resource.svg"><rect x="584" y="370" width="108" height="50" fill="whitesmoke" stroke="black" stroke-width="2" ><title>resource needed to perform care activities</title></rect><text x="638" y="380" text-anchor="middle" font-family="Cambria" font-size="12" fill="black"><tspan x="638" y="380"  text-anchor="middle">care resource</tspan></text>
</a></g>
<g> <!-- Association care activity is for subject of care -->
<line x1="405" y1="465" x2="584" y2="465" stroke="black" stroke-width="2" /><text x="417" y="458" text-anchor="middle" font-family="Cambria" font-size="12" fill="black"><tspan x="417" y="458"  text-anchor="middle">1..*</tspan></text>
<text x="576" y="458" text-anchor="middle" font-family="Cambria" font-size="12" fill="black"><tspan x="576" y="458"  text-anchor="middle">1</tspan></text>
<text x="494" y="479" text-anchor="middle" font-family="Cambria" font-size="12" fill="black"><tspan x="494" y="479"  text-anchor="middle">is for</tspan></text>
</g>
<g><!-- subject of care -->
<a xlink:href="subject of care.svg"><rect x="584" y="440" width="108" height="50" fill="whitesmoke" stroke="black" stroke-width="2" ><title>person seeking to receive, receiving, or having received care</title></rect><text x="638" y="450" text-anchor="middle" font-family="Cambria" font-size="12" fill="black"><tspan x="638" y="450"  text-anchor="middle">subject of care</tspan></text>
</a></g>
<g> <!-- Association care activity care activity care activity -->
<line x1="405" y1="505" x2="469" y2="505" stroke="black" stroke-width="2" /><line x1="469" y1="505" x2="469" y2="535" stroke="black" stroke-width="2" /><line x1="469" y1="535" x2="405" y2="535" stroke="black" stroke-width="2" /><text x="574" y="520" text-anchor="start" font-family="Cambria" font-size="12" fill="black"><tspan x="574" y="520"  text-anchor="middle">care activity</tspan></text>
<text x="415" y="521" text-anchor="middle" font-family="Cambria" font-size="12" fill="black"><tspan x="415" y="521"  text-anchor="middle">0..1</tspan></text>
<text x="415" y="498" text-anchor="middle" font-family="Cambria" font-size="12" fill="black"><tspan x="415" y="498"  text-anchor="middle">0..1</tspan></text>
<polygon points="405,535 415,530 425,535 415,540" fill="white" stroke="black" stroke-width="2" />
</g>
<g><!-- care activity -->
<a xlink:href="care activity.svg"><rect x="297" y="10" width="108" height="650" fill="white" stroke="black" stroke-width="2" ><title>activity intended to improve or maintain a health state </title></rect><text x="351" y="20" text-anchor="middle" font-family="Cambria" font-size="12" fill="black"><tspan x="351" y="20"  text-anchor="middle">care activity</tspan></text>
</a></g>
<!-- (87,737) to (351,662) care communication has generalization care activity -->
<line x1="87" y1="737" x2="87" y2="717" stroke="black" stroke-width="2" /><line x1="351" y1="662" x2="351" y2="717" stroke="black" stroke-width="2" /><line x1="87" y1="717" x2="351" y2="717" stroke="black" stroke-width="2" /><polygon points="351,662 346,672 356,672" fill="white" stroke="black" stroke-width="2" /><g><!-- care communication -->
<a xlink:href="care communication.svg"><rect x="33" y="737" width="108" height="50" fill="whitesmoke" stroke="black" stroke-width="2" ><title>care activity where at least two care actors communicate</title></rect><text x="87" y="747" text-anchor="middle" font-family="Cambria" font-size="12" fill="black"><tspan x="87" y="747"  text-anchor="middle">care communication</tspan></text>
</a></g>
<!-- (262,812) to (351,662) care documenting has generalization care activity -->
<line x1="262" y1="812" x2="262" y2="792" stroke="black" stroke-width="2" /><line x1="351" y1="662" x2="351" y2="792" stroke="black" stroke-width="2" /><line x1="262" y1="792" x2="351" y2="792" stroke="black" stroke-width="2" /><polygon points="351,662 346,672 356,672" fill="white" stroke="black" stroke-width="2" /><g><!-- care documenting -->
<a xlink:href="care documenting.svg"><rect x="208" y="812" width="108" height="50" fill="whitesmoke" stroke="black" stroke-width="2" ><title>care activity where health records are created or maintained</title></rect><text x="262" y="822" text-anchor="middle" font-family="Cambria" font-size="12" fill="black"><tspan x="262" y="822"  text-anchor="middle">care documenting</tspan></text>
</a></g>
<!-- (437,887) to (351,662) care treatment has generalization care activity -->
<line x1="437" y1="887" x2="437" y2="867" stroke="black" stroke-width="2" /><line x1="351" y1="662" x2="351" y2="867" stroke="black" stroke-width="2" /><line x1="437" y1="867" x2="351" y2="867" stroke="black" stroke-width="2" /><polygon points="351,662 346,672 356,672" fill="white" stroke="black" stroke-width="2" /><g><!-- care treatment -->
<a xlink:href="care treatment.svg"><rect x="383" y="887" width="108" height="50" fill="white" stroke="black" stroke-width="2" ><title>care activity intended to directly improve or maintain a health state</title></rect><text x="437" y="897" text-anchor="middle" font-family="Cambria" font-size="12" fill="black"><tspan x="437" y="897"  text-anchor="middle">care treatment</tspan></text>
</a></g>
<!-- (612,737) to (351,662) care planning has generalization care activity -->
<line x1="612" y1="737" x2="612" y2="717" stroke="black" stroke-width="2" /><line x1="351" y1="662" x2="351" y2="717" stroke="black" stroke-width="2" /><line x1="612" y1="717" x2="351" y2="717" stroke="black" stroke-width="2" /><polygon points="351,662 346,672 356,672" fill="white" stroke="black" stroke-width="2" /><g><!-- care planning -->
<a xlink:href="care planning.svg"><rect x="558" y="737" width="108" height="50" fill="whitesmoke" stroke="black" stroke-width="2" ><title>care activity management where a care plan is managed</title></rect><text x="612" y="747" text-anchor="middle" font-family="Cambria" font-size="12" fill="black"><tspan x="612" y="747"  text-anchor="middle">care planning</tspan></text>
</a></g>
<!-- (87,812) to (351,662) care evaluation has generalization care activity -->
<line x1="87" y1="812" x2="87" y2="792" stroke="black" stroke-width="2" /><line x1="351" y1="662" x2="351" y2="792" stroke="black" stroke-width="2" /><line x1="87" y1="792" x2="351" y2="792" stroke="black" stroke-width="2" /><polygon points="351,662 346,672 356,672" fill="white" stroke="black" stroke-width="2" /><g><!-- care evaluation -->
<a xlink:href="care evaluation.svg"><rect x="33" y="812" width="108" height="50" fill="white" stroke="black" stroke-width="2" ><title>care activity where aspects of at least one other care activity are evaluated</title></rect><text x="87" y="822" text-anchor="middle" font-family="Cambria" font-size="12" fill="black"><tspan x="87" y="822"  text-anchor="middle">care evaluation</tspan></text>
</a></g>
<!-- (262,887) to (351,662) care activity management has generalization care activity -->
<line x1="262" y1="887" x2="262" y2="867" stroke="black" stroke-width="2" /><line x1="351" y1="662" x2="351" y2="867" stroke="black" stroke-width="2" /><line x1="262" y1="867" x2="351" y2="867" stroke="black" stroke-width="2" /><polygon points="351,662 346,672 356,672" fill="white" stroke="black" stroke-width="2" /><g><!-- care activity management -->
<a xlink:href="care activity management.svg"><rect x="208" y="887" width="108" height="50" fill="white" stroke="black" stroke-width="2" ><title>care activity during which the status of care activities in a care plan are changed</title></rect><text x="262" y="897" text-anchor="middle" font-family="Cambria" font-size="12" fill="black"><tspan x="262" y="897"  text-anchor="middle">care activity</tspan><tspan x="262" y="911"  text-anchor="middle">management</tspan></text>
</a></g>
<!-- (437,737) to (351,662) care third party activity has generalization care activity -->
<line x1="437" y1="737" x2="437" y2="717" stroke="black" stroke-width="2" /><line x1="351" y1="662" x2="351" y2="717" stroke="black" stroke-width="2" /><line x1="437" y1="717" x2="351" y2="717" stroke="black" stroke-width="2" /><polygon points="351,662 346,672 356,672" fill="white" stroke="black" stroke-width="2" /><g><!-- care third party activity -->
<a xlink:href="care third party activity.svg"><rect x="383" y="737" width="108" height="50" fill="white" stroke="black" stroke-width="2" ><title>care activity performed by a care third party </title></rect><text x="437" y="747" text-anchor="middle" font-family="Cambria" font-size="12" fill="black"><tspan x="437" y="747"  text-anchor="middle">care third party</tspan><tspan x="437" y="761"  text-anchor="middle">activity</tspan></text>
</a></g>
<!-- (612,812) to (351,662) care provider activity has generalization care activity -->
<line x1="612" y1="812" x2="612" y2="792" stroke="black" stroke-width="2" /><line x1="351" y1="662" x2="351" y2="792" stroke="black" stroke-width="2" /><line x1="612" y1="792" x2="351" y2="792" stroke="black" stroke-width="2" /><polygon points="351,662 346,672 356,672" fill="white" stroke="black" stroke-width="2" /><g><!-- care provider activity -->
<a xlink:href="care provider activity.svg"><rect x="558" y="812" width="108" height="50" fill="white" stroke="black" stroke-width="2" ><title>care activity performed by a care provider</title></rect><text x="612" y="822" text-anchor="middle" font-family="Cambria" font-size="12" fill="black"><tspan x="612" y="822"  text-anchor="middle">care provider</tspan><tspan x="612" y="836"  text-anchor="middle">activity</tspan></text>
</a></g>
<!-- (87,887) to (351,662) care assessment has generalization care activity -->
<line x1="87" y1="887" x2="87" y2="867" stroke="black" stroke-width="2" /><line x1="351" y1="662" x2="351" y2="867" stroke="black" stroke-width="2" /><line x1="87" y1="867" x2="351" y2="867" stroke="black" stroke-width="2" /><polygon points="351,662 346,672 356,672" fill="white" stroke="black" stroke-width="2" /><g><!-- care assessment -->
<a xlink:href="care assessment.svg"><rect x="33" y="887" width="108" height="50" fill="white" stroke="black" stroke-width="2" ><title>care activity where an opinion related to health conditions and/or care activities is formed</title></rect><text x="87" y="897" text-anchor="middle" font-family="Cambria" font-size="12" fill="black"><tspan x="87" y="897"  text-anchor="middle">care assessment</tspan></text>
</a></g>
<!-- (262,737) to (351,662) care investigation has generalization care activity -->
<line x1="262" y1="737" x2="262" y2="717" stroke="black" stroke-width="2" /><line x1="351" y1="662" x2="351" y2="717" stroke="black" stroke-width="2" /><line x1="262" y1="717" x2="351" y2="717" stroke="black" stroke-width="2" /><polygon points="351,662 346,672 356,672" fill="white" stroke="black" stroke-width="2" /><g><!-- care investigation -->
<a xlink:href="care investigation.svg"><rect x="208" y="737" width="108" height="50" fill="white" stroke="black" stroke-width="2" ><title>care activity with the intention to clarify one or more health conditions of a subject of care</title></rect><text x="262" y="747" text-anchor="middle" font-family="Cambria" font-size="12" fill="black"><tspan x="262" y="747"  text-anchor="middle">care investigation</tspan></text>
</a></g>
<!-- (437,812) to (351,662) self-care activity has generalization care activity -->
<line x1="437" y1="812" x2="437" y2="792" stroke="black" stroke-width="2" /><line x1="351" y1="662" x2="351" y2="792" stroke="black" stroke-width="2" /><line x1="437" y1="792" x2="351" y2="792" stroke="black" stroke-width="2" /><polygon points="351,662 346,672 356,672" fill="white" stroke="black" stroke-width="2" /><g><!-- self-care activity -->
<a xlink:href="self-care activity.svg"><rect x="383" y="812" width="108" height="50" fill="white" stroke="black" stroke-width="2" ><title>care activity performed by the subject of care </title></rect><text x="437" y="822" text-anchor="middle" font-family="Cambria" font-size="12" fill="black"><tspan x="437" y="822"  text-anchor="middle">self-care activity</tspan></text>
</a></g>
<!-- (612,887) to (351,662) adverse event management has generalization care activity -->
<line x1="612" y1="887" x2="612" y2="867" stroke="black" stroke-width="2" /><line x1="351" y1="662" x2="351" y2="867" stroke="black" stroke-width="2" /><line x1="612" y1="867" x2="351" y2="867" stroke="black" stroke-width="2" /><polygon points="351,662 346,672 356,672" fill="white" stroke="black" stroke-width="2" /><g><!-- adverse event management -->
<a xlink:href="adverse event management.svg"><rect x="558" y="887" width="108" height="50" fill="whitesmoke" stroke="black" stroke-width="2" ><title>set of care activities performed in response to an adverse event</title></rect><text x="612" y="897" text-anchor="middle" font-family="Cambria" font-size="12" fill="black"><tspan x="612" y="897"  text-anchor="middle">adverse event</tspan><tspan x="612" y="911"  text-anchor="middle">management</tspan></text>
</a></g>
</svg>