<svg xmlns="http://www.w3.org/2000/svg" xmlns:xlink="http://www.w3.org/1999/xlink" version="1.1" viewBox="0 0 702 207"><!-- Generalisations of the Focal Class health problem list
 -->
<g><!-- health thread -->
<a xlink:href="health thread.svg"><rect x="297" y="10" width="108" height="50" fill="white" stroke="black" stroke-width="2" ><title>defined association between care circumstances as determined by one or more care actors</title></rect><text x="351" y="20" text-anchor="middle" font-family="Cambria" font-size="12" fill="black"><tspan x="351" y="20"  text-anchor="middle">health thread</tspan></text>
</a></g>
<!-- (351,135) to (351,62) health problem list has generalization health thread -->
<line x1="351" y1="135" x2="351" y2="115" stroke="black" stroke-width="2" /><line x1="351" y1="62" x2="351" y2="115" stroke="black" stroke-width="2" /><line x1="351" y1="115" x2="351" y2="115" stroke="black" stroke-width="2" /><polygon points="351,62 346,72 356,72" fill="white" stroke="black" stroke-width="2" /><g> <!-- Association health problem list health problems health problem -->
<line x1="405" y1="170" x2="584" y2="170" stroke="black" stroke-width="2" /><text x="417" y="163" text-anchor="middle" font-family="Cambria" font-size="12" fill="black"><tspan x="417" y="163"  text-anchor="middle">0..*</tspan></text>
<text x="565" y="163" text-anchor="middle" font-family="Cambria" font-size="12" fill="black"><tspan x="565" y="163"  text-anchor="middle">0..*</tspan></text>
<polygon points="562,170 572,165 582,170 572,175" fill="white" stroke="black" stroke-width="2" />
</g>
<g><!-- health problem -->
<a xlink:href="health problem.svg"><rect x="584" y="145" width="108" height="50" fill="white" stroke="black" stroke-width="2" ><title>health condition considered by a care actor to be a problem</title></rect><text x="638" y="155" text-anchor="middle" font-family="Cambria" font-size="12" fill="black"><tspan x="638" y="155"  text-anchor="middle">health problem</tspan></text>
</a></g>
<g><!-- health problem list -->
<a xlink:href="health problem list.svg"><rect x="297" y="135" width="108" height="70" fill="white" stroke="black" stroke-width="2" ><title>health thread linking a set of health problems </title></rect><text x="351" y="145" text-anchor="middle" font-family="Cambria" font-size="12" fill="black"><tspan x="351" y="145"  text-anchor="middle">health problem</tspan><tspan x="351" y="159"  text-anchor="middle">list</tspan></text>
</a></g>
</svg>