<svg xmlns="http://www.w3.org/2000/svg" xmlns:xlink="http://www.w3.org/1999/xlink" version="1.1" viewBox="0 0 702 277"><title>UML Class Diagram of health related period and related concepts</title><desc>An UML Class Diagram of the concept health related period and the concepts related to it.</desc><g> <!-- Association health related period is episode for clinical process -->
<line x1="405" y1="35" x2="584" y2="35" stroke="black" stroke-width="2" /><text x="417" y="28" text-anchor="middle" font-family="Cambria" font-size="12" fill="black"><tspan x="417" y="28"  text-anchor="middle">1</tspan></text>
<text x="565" y="28" text-anchor="middle" font-family="Cambria" font-size="12" fill="black"><tspan x="565" y="28"  text-anchor="middle">0..1</tspan></text>
<text x="494" y="49" text-anchor="middle" font-family="Cambria" font-size="12" fill="black"><tspan x="494" y="49"  text-anchor="middle">is episode for</tspan></text>
</g>
<g><!-- clinical process -->
<a xlink:href="clinical process.svg"><rect x="584" y="10" width="108" height="50" fill="whitesmoke" stroke="black" stroke-width="2" ><title>care process encompassing all care provider activities and other prescribed care activities that addresses identified or specified health circumstances</title></rect><text x="638" y="20" text-anchor="middle" font-family="Cambria" font-size="12" fill="black"><tspan x="638" y="20"  text-anchor="middle">clinical process</tspan></text>
</a></g>
<g> <!-- Association health related period health related period health related period -->
<line x1="405" y1="85" x2="469" y2="85" stroke="black" stroke-width="2" /><line x1="469" y1="85" x2="469" y2="115" stroke="black" stroke-width="2" /><line x1="469" y1="115" x2="405" y2="115" stroke="black" stroke-width="2" /><text x="574" y="100" text-anchor="start" font-family="Cambria" font-size="12" fill="black"><tspan x="574" y="100"  text-anchor="middle">health related period</tspan></text>
<text x="415" y="101" text-anchor="middle" font-family="Cambria" font-size="12" fill="black"><tspan x="415" y="101"  text-anchor="middle">0..*</tspan></text>
<text x="415" y="78" text-anchor="middle" font-family="Cambria" font-size="12" fill="black"><tspan x="415" y="78"  text-anchor="middle">0..*</tspan></text>
</g>
<g><!-- health related period -->
<a xlink:href="health related period.svg"><rect x="297" y="10" width="108" height="130" fill="white" stroke="black" stroke-width="2" ><title>time interval related to the health or care of a subject of care</title></rect><text x="351" y="20" text-anchor="middle" font-family="Cambria" font-size="12" fill="black"><tspan x="351" y="20"  text-anchor="middle">health related</tspan><tspan x="351" y="34"  text-anchor="middle">period</tspan></text>
</a></g>
<!-- (70,217) to (351,142) health state period has generalization health related period -->
<line x1="70" y1="217" x2="70" y2="197" stroke="black" stroke-width="2" /><line x1="351" y1="142" x2="351" y2="197" stroke="black" stroke-width="2" /><line x1="70" y1="197" x2="351" y2="197" stroke="black" stroke-width="2" /><polygon points="351,142 346,152 356,152" fill="white" stroke="black" stroke-width="2" /><g><!-- health state period -->
<a xlink:href="health state period.svg"><rect x="16" y="217" width="108" height="50" fill="white" stroke="black" stroke-width="2" ><title>health related period during which a health condition has been observed</title></rect><text x="70" y="227" text-anchor="middle" font-family="Cambria" font-size="12" fill="black"><tspan x="70" y="227"  text-anchor="middle">health state</tspan><tspan x="70" y="241"  text-anchor="middle">period</tspan></text>
</a></g>
<!-- (210,217) to (351,142) episode of care has generalization health related period -->
<line x1="210" y1="217" x2="210" y2="197" stroke="black" stroke-width="2" /><line x1="351" y1="142" x2="351" y2="197" stroke="black" stroke-width="2" /><line x1="210" y1="197" x2="351" y2="197" stroke="black" stroke-width="2" /><polygon points="351,142 346,152 356,152" fill="white" stroke="black" stroke-width="2" /><g><!-- episode of care -->
<a xlink:href="episode of care.svg"><rect x="156" y="217" width="108" height="50" fill="white" stroke="black" stroke-width="2" ><title>health related period during which care activities are performed to address one health issue as identified by one care professional</title></rect><text x="210" y="227" text-anchor="middle" font-family="Cambria" font-size="12" fill="black"><tspan x="210" y="227"  text-anchor="middle">episode of care</tspan></text>
</a></g>
<!-- (350,217) to (351,142) mandated period of care has generalization health related period -->
<line x1="350" y1="217" x2="350" y2="197" stroke="black" stroke-width="2" /><line x1="351" y1="142" x2="351" y2="197" stroke="black" stroke-width="2" /><line x1="350" y1="197" x2="351" y2="197" stroke="black" stroke-width="2" /><polygon points="351,142 346,152 356,152" fill="white" stroke="black" stroke-width="2" /><g><!-- mandated period of care -->
<a xlink:href="mandated period of care.svg"><rect x="296" y="217" width="108" height="50" fill="white" stroke="black" stroke-width="2" ><title>set of care activity periods where a care provider is mandated to perform the care activities required to address specific health needs</title></rect><text x="350" y="227" text-anchor="middle" font-family="Cambria" font-size="12" fill="black"><tspan x="350" y="227"  text-anchor="middle">mandated period</tspan><tspan x="350" y="241"  text-anchor="middle">of care</tspan></text>
</a></g>
<!-- (490,217) to (351,142) care activity period has generalization health related period -->
<line x1="490" y1="217" x2="490" y2="197" stroke="black" stroke-width="2" /><line x1="351" y1="142" x2="351" y2="197" stroke="black" stroke-width="2" /><line x1="490" y1="197" x2="351" y2="197" stroke="black" stroke-width="2" /><polygon points="351,142 346,152 356,152" fill="white" stroke="black" stroke-width="2" /><g><!-- care activity period -->
<a xlink:href="care activity period.svg"><rect x="436" y="217" width="108" height="50" fill="white" stroke="black" stroke-width="2" ><title>time interval during which care activities are performed for a subject of care</title></rect><text x="490" y="227" text-anchor="middle" font-family="Cambria" font-size="12" fill="black"><tspan x="490" y="227"  text-anchor="middle">care activity</tspan><tspan x="490" y="241"  text-anchor="middle">period</tspan></text>
</a></g>
<!-- (630,217) to (351,142) care activity delay has generalization health related period -->
<line x1="630" y1="217" x2="630" y2="197" stroke="black" stroke-width="2" /><line x1="351" y1="142" x2="351" y2="197" stroke="black" stroke-width="2" /><line x1="630" y1="197" x2="351" y2="197" stroke="black" stroke-width="2" /><polygon points="351,142 346,152 356,152" fill="white" stroke="black" stroke-width="2" /><g><!-- care activity delay -->
<a xlink:href="care activity delay.svg"><rect x="576" y="217" width="108" height="50" fill="white" stroke="black" stroke-width="2" ><title>health related period during which a care activity is planned but not started</title></rect><text x="630" y="227" text-anchor="middle" font-family="Cambria" font-size="12" fill="black"><tspan x="630" y="227"  text-anchor="middle">care activity</tspan><tspan x="630" y="241"  text-anchor="middle">delay</tspan></text>
</a></g>
</svg>