<svg xmlns="http://www.w3.org/2000/svg" xmlns:xlink="http://www.w3.org/1999/xlink" version="1.1" viewBox="0 0 702 462"><title>UML Class Diagram of health record component and related classes</title><!-- Generalisations of the Focal Class health record component
 -->
<g><!-- information -->
<a xlink:href="information.svg"><rect x="297" y="10" width="108" height="50" fill="white" stroke="black" stroke-width="2" ><title>knowledge concerning objects that within a certain context has a particular meaning</title></rect><text x="351" y="20" text-anchor="middle" font-family="Cambria" font-size="12" fill="black"><tspan x="351" y="20"  text-anchor="middle">information</tspan></text>
</a></g>
<!-- (351,135) to (351,62) health record component has generalization information -->
<line x1="351" y1="135" x2="351" y2="115" stroke="black" stroke-width="2" /><line x1="351" y1="62" x2="351" y2="115" stroke="black" stroke-width="2" /><line x1="351" y1="115" x2="351" y2="115" stroke="black" stroke-width="2" /><polygon points="351,62 346,72 356,72" fill="white" stroke="black" stroke-width="2" /><g> <!-- Association health circumstance labels health record component -->
<line x1="118" y1="170" x2="297" y2="170" stroke="black" stroke-width="2" /><text x="130" y="163" text-anchor="middle" font-family="Cambria" font-size="12" fill="black"><tspan x="130" y="163"  text-anchor="middle">0..1</tspan></text>
<text x="287" y="163" text-anchor="middle" font-family="Cambria" font-size="12" fill="black"><tspan x="287" y="163"  text-anchor="middle">0..*</tspan></text>
<text x="207" y="184" text-anchor="middle" font-family="Cambria" font-size="12" fill="black"><tspan x="207" y="184"  text-anchor="middle">labels</tspan></text>

</g>
<g><!-- health circumstance -->
<a xlink:href="health circumstance.svg"><rect x="10" y="145" width="108" height="50" fill="whitesmoke" stroke="black" stroke-width="2" ><title>circumstance contributing to the health state of a person</title></rect><text x="64" y="155" text-anchor="middle" font-family="Cambria" font-size="12" fill="black"><tspan x="64" y="155"  text-anchor="middle">health circumstance</tspan></text>
</a></g>
<g> <!-- Association health record health record component health record component -->
<line x1="118" y1="230" x2="297" y2="230" stroke="black" stroke-width="2" /><text x="130" y="223" text-anchor="middle" font-family="Cambria" font-size="12" fill="black"><tspan x="130" y="223"  text-anchor="middle">0..*</tspan></text>
<text x="287" y="223" text-anchor="middle" font-family="Cambria" font-size="12" fill="black"><tspan x="287" y="223"  text-anchor="middle">1..*</tspan></text>
<text x="207" y="244" text-anchor="middle" font-family="Cambria" font-size="12" fill="black"><tspan x="207" y="244"  text-anchor="middle">health record component</tspan></text>

</g>
<g><!-- health record -->
<a xlink:href="health record.svg"><rect x="10" y="205" width="108" height="50" fill="white" stroke="black" stroke-width="2" ><title>data repository regarding the health and care of a subject of care</title></rect><text x="64" y="215" text-anchor="middle" font-family="Cambria" font-size="12" fill="black"><tspan x="64" y="215"  text-anchor="middle">health record</tspan></text>
</a></g>
<g> <!-- Association health record extract contains health record component -->
<line x1="118" y1="290" x2="297" y2="290" stroke="black" stroke-width="2" /><text x="130" y="283" text-anchor="middle" font-family="Cambria" font-size="12" fill="black"><tspan x="130" y="283"  text-anchor="middle">0..*</tspan></text>
<text x="287" y="283" text-anchor="middle" font-family="Cambria" font-size="12" fill="black"><tspan x="287" y="283"  text-anchor="middle">1..*</tspan></text>
<text x="207" y="304" text-anchor="middle" font-family="Cambria" font-size="12" fill="black"><tspan x="207" y="304"  text-anchor="middle">contains</tspan></text>

</g>
<g><!-- health record extract -->
<a xlink:href="health record extract.svg"><rect x="10" y="265" width="108" height="50" fill="white" stroke="black" stroke-width="2" ><title>part or all of a health record extracted for the purpose of communication</title></rect><text x="64" y="275" text-anchor="middle" font-family="Cambria" font-size="12" fill="black"><tspan x="64" y="275"  text-anchor="middle">health record</tspan><tspan x="64" y="289"  text-anchor="middle">extract</tspan></text>
</a></g>
<g> <!-- Association health record component link health record component -->
<line x1="405" y1="160" x2="469" y2="160" stroke="black" stroke-width="2" /><line x1="469" y1="160" x2="469" y2="190" stroke="black" stroke-width="2" /><line x1="469" y1="190" x2="405" y2="190" stroke="black" stroke-width="2" /><text x="574" y="175" text-anchor="start" font-family="Cambria" font-size="12" fill="black"><tspan x="574" y="175"  text-anchor="middle">link</tspan></text>
<text x="415" y="176" text-anchor="middle" font-family="Cambria" font-size="12" fill="black"><tspan x="415" y="176"  text-anchor="middle">0..*</tspan></text>
<text x="415" y="153" text-anchor="middle" font-family="Cambria" font-size="12" fill="black"><tspan x="415" y="153"  text-anchor="middle">0..*</tspan></text>
</g>
<g> <!-- Association health record component contains health record component -->
<line x1="405" y1="220" x2="469" y2="220" stroke="black" stroke-width="2" /><line x1="469" y1="220" x2="469" y2="250" stroke="black" stroke-width="2" /><line x1="469" y1="250" x2="405" y2="250" stroke="black" stroke-width="2" /><text x="574" y="235" text-anchor="start" font-family="Cambria" font-size="12" fill="black"><tspan x="574" y="235"  text-anchor="middle">contains</tspan></text>
<text x="415" y="236" text-anchor="middle" font-family="Cambria" font-size="12" fill="black"><tspan x="415" y="236"  text-anchor="middle">0..*</tspan></text>
<text x="415" y="213" text-anchor="middle" font-family="Cambria" font-size="12" fill="black"><tspan x="415" y="213"  text-anchor="middle">0..*</tspan></text>
</g>
<g><!-- health record component -->
<a xlink:href="health record component.svg"><rect x="297" y="135" width="108" height="190" fill="white" stroke="black" stroke-width="2" ><title>part of a health record that is identifiable for the purposes of referencing and revision</title></rect><text x="351" y="145" text-anchor="middle" font-family="Cambria" font-size="12" fill="black"><tspan x="351" y="145"  text-anchor="middle">health record</tspan><tspan x="351" y="159"  text-anchor="middle">component</tspan></text>
</a></g>
<!-- (70,402) to (351,327) SECTION has generalization health record component -->
<line x1="70" y1="402" x2="70" y2="382" stroke="black" stroke-width="2" /><line x1="351" y1="327" x2="351" y2="382" stroke="black" stroke-width="2" /><line x1="70" y1="382" x2="351" y2="382" stroke="black" stroke-width="2" /><polygon points="351,327 346,337 356,337" fill="white" stroke="black" stroke-width="2" /><g><!-- SECTION -->
<a xlink:href="SECTION.svg"><rect x="16" y="402" width="108" height="50" fill="white" stroke="black" stroke-width="2" ><title>structure component used for creating hierarchical structures within a composition and with entries as leaf nodes</title></rect><text x="70" y="412" text-anchor="middle" font-family="Cambria" font-size="12" fill="black"><tspan x="70" y="412"  text-anchor="middle">SECTION</tspan></text>
</a></g>
<!-- (210,402) to (351,327) ENTRY has generalization health record component -->
<line x1="210" y1="402" x2="210" y2="382" stroke="black" stroke-width="2" /><line x1="351" y1="327" x2="351" y2="382" stroke="black" stroke-width="2" /><line x1="210" y1="382" x2="351" y2="382" stroke="black" stroke-width="2" /><polygon points="351,327 346,337 356,337" fill="white" stroke="black" stroke-width="2" /><g><!-- ENTRY -->
<a xlink:href="ENTRY.svg"><rect x="156" y="402" width="108" height="50" fill="white" stroke="black" stroke-width="2" ><title>structure component that represents the data documenting one clinical observation or a series of related observations, or a clinical statement, an explanation of clinical reasoning, a care intention, plan or action.</title></rect><text x="210" y="412" text-anchor="middle" font-family="Cambria" font-size="12" fill="black"><tspan x="210" y="412"  text-anchor="middle">ENTRY</tspan></text>
</a></g>
<!-- (350,402) to (351,327) ITEM has generalization health record component -->
<line x1="350" y1="402" x2="350" y2="382" stroke="black" stroke-width="2" /><line x1="351" y1="327" x2="351" y2="382" stroke="black" stroke-width="2" /><line x1="350" y1="382" x2="351" y2="382" stroke="black" stroke-width="2" /><polygon points="351,327 346,337 356,337" fill="white" stroke="black" stroke-width="2" /><g><!-- ITEM -->
<a xlink:href="ITEM.svg"><rect x="296" y="402" width="108" height="50" fill="white" stroke="black" stroke-width="2" ><title>abstract structure component that holds all properties common for clusters and elements</title></rect><text x="350" y="412" text-anchor="middle" font-family="Cambria" font-size="12" fill="black"><tspan x="350" y="412"  text-anchor="middle">ITEM</tspan></text>
</a></g>
<!-- (490,402) to (351,327) COMPOSITION has generalization health record component -->
<line x1="490" y1="402" x2="490" y2="382" stroke="black" stroke-width="2" /><line x1="351" y1="327" x2="351" y2="382" stroke="black" stroke-width="2" /><line x1="490" y1="382" x2="351" y2="382" stroke="black" stroke-width="2" /><polygon points="351,327 346,337 356,337" fill="white" stroke="black" stroke-width="2" /><g><!-- COMPOSITION -->
<a xlink:href="COMPOSITION.svg"><rect x="436" y="402" width="108" height="50" fill="white" stroke="black" stroke-width="2" ><title>structure component containing information composed during one clinical encounter or documentation session, and committed within one EHR</title></rect><text x="490" y="412" text-anchor="middle" font-family="Cambria" font-size="12" fill="black"><tspan x="490" y="412"  text-anchor="middle">COMPOSITION</tspan></text>
</a></g>
<!-- (630,402) to (351,327) FOLDER has generalization health record component -->
<line x1="630" y1="402" x2="630" y2="382" stroke="black" stroke-width="2" /><line x1="351" y1="327" x2="351" y2="382" stroke="black" stroke-width="2" /><line x1="630" y1="382" x2="351" y2="382" stroke="black" stroke-width="2" /><polygon points="351,327 346,337 356,337" fill="white" stroke="black" stroke-width="2" /><g><!-- FOLDER -->
<a xlink:href="FOLDER.svg"><rect x="576" y="402" width="108" height="50" fill="white" stroke="black" stroke-width="2" ><title>structure component used for creating hierarchical structures within an EHR extract and with compositions as leaf nodes</title></rect><text x="630" y="412" text-anchor="middle" font-family="Cambria" font-size="12" fill="black"><tspan x="630" y="412"  text-anchor="middle">FOLDER</tspan></text>
</a></g>
</svg>