<svg xmlns="http://www.w3.org/2000/svg" xmlns:xlink="http://www.w3.org/1999/xlink" version="1.1" viewBox="0 0 702 402" aria-labelledby="title desc" role="img"><title id="title">UML Class Diagram of health condition and related concepts</title><desc  id="desc">An UML Class Diagram of the concept health condition and the concepts related to it.</desc><!-- Generalisations of the Focal Class health condition
 -->
<g><!-- health circumstance -->
<a xlink:href="health circumstance.svg" role="link"><rect x="297" y="10" width="108" height="50" fill="white" stroke="black" stroke-width="2" ><title>circumstance contributing to the health state of a person</title></rect><text x="351" y="30" text-anchor="middle" font-family="Cambria" font-size="12" fill="black"><tspan x="351" y="30"  text-anchor="middle">health circumstance</tspan></text>
</a></g>
<!-- (351,135) to (351,62) health condition has generalization health circumstance -->
<line x1="351" y1="135" x2="351" y2="115" stroke="black" stroke-width="2" /><line x1="351" y1="62" x2="351" y2="115" stroke="black" stroke-width="2" /><line x1="351" y1="115" x2="351" y2="115" stroke="black" stroke-width="2" /><polygon points="351,62 346,72 356,72" fill="white" stroke="black" stroke-width="2" /><g> <!-- Association care investigation reveals health condition health condition -->
<line x1="118" y1="160" x2="297" y2="160" stroke="black" stroke-width="2" /><text x="130" y="153" text-anchor="middle" font-family="Cambria" font-size="12" fill="black"><tspan x="130" y="153"  text-anchor="middle">0..*</tspan></text>
<text x="287" y="153" text-anchor="middle" font-family="Cambria" font-size="12" fill="black"><tspan x="287" y="153"  text-anchor="middle">0..*</tspan></text>
<text x="207" y="174" text-anchor="middle" font-family="Cambria" font-size="12" fill="black"><tspan x="207" y="174"  text-anchor="middle">reveals health condition</tspan></text>

</g>
<g><!-- care investigation -->
<a xlink:href="care investigation.svg" role="link"><rect x="10" y="135" width="108" height="50" fill="whitesmoke" stroke="black" stroke-width="2" ><title>care activity with the intention to clarify one or more health conditions of a subject of care</title></rect><text x="64" y="155" text-anchor="middle" font-family="Cambria" font-size="12" fill="black"><tspan x="64" y="155"  text-anchor="middle">care investigation</tspan></text>
</a></g>
<g> <!-- Association care needs assessment considers health condition -->
<line x1="118" y1="220" x2="297" y2="220" stroke="black" stroke-width="2" /><text x="130" y="213" text-anchor="middle" font-family="Cambria" font-size="12" fill="black"><tspan x="130" y="213"  text-anchor="middle">0..*</tspan></text>
<text x="287" y="213" text-anchor="middle" font-family="Cambria" font-size="12" fill="black"><tspan x="287" y="213"  text-anchor="middle">1..*</tspan></text>
<text x="207" y="234" text-anchor="middle" font-family="Cambria" font-size="12" fill="black"><tspan x="207" y="234"  text-anchor="middle">considers</tspan></text>

</g>
<g><!-- care needs assessment -->
<a xlink:href="care needs assessment.svg" role="link"><rect x="10" y="195" width="108" height="50" fill="whitesmoke" stroke="black" stroke-width="2" ><title>care assessment during which a care professional considers a subject of care’s health need and determines the needed care activities</title></rect><text x="64" y="215" text-anchor="middle" font-family="Cambria" font-size="12" fill="black"><tspan x="64" y="215"  text-anchor="middle">care needs assessment</tspan></text>
</a></g>
<g> <!-- Association health condition health state health state -->
<line x1="405" y1="170" x2="584" y2="170" stroke="black" stroke-width="2" /><text x="417" y="163" text-anchor="middle" font-family="Cambria" font-size="12" fill="black"><tspan x="417" y="163"  text-anchor="middle">0..*</tspan></text>
<text x="571" y="163" text-anchor="middle" font-family="Cambria" font-size="12" fill="black"><tspan x="571" y="163"  text-anchor="middle">0..*</tspan></text>
<polygon points="562,170 572,165 582,170 572,175" fill="white" stroke="black" stroke-width="2" />
</g>
<g><!-- health state -->
<a xlink:href="health state.svg" role="link"><rect x="584" y="145" width="108" height="50" fill="white" stroke="black" stroke-width="2" ><title>overall state of health of the subject of care</title></rect><text x="638" y="165" text-anchor="middle" font-family="Cambria" font-size="12" fill="black"><tspan x="638" y="165"  text-anchor="middle">health state</tspan></text>
</a></g>
<g> <!-- Association health condition observed during health state period -->
<line x1="405" y1="230" x2="584" y2="230" stroke="black" stroke-width="2" /><text x="417" y="223" text-anchor="middle" font-family="Cambria" font-size="12" fill="black"><tspan x="417" y="223"  text-anchor="middle">1</tspan></text>
<text x="576" y="223" text-anchor="middle" font-family="Cambria" font-size="12" fill="black"><tspan x="576" y="223"  text-anchor="middle">1</tspan></text>
<text x="494" y="244" text-anchor="middle" font-family="Cambria" font-size="12" fill="black"><tspan x="494" y="244"  text-anchor="middle">observed during</tspan></text>
</g>
<g><!-- health state period -->
<a xlink:href="health state period.svg" role="link"><rect x="584" y="205" width="108" height="50" fill="whitesmoke" stroke="black" stroke-width="2" ><title>health related period during which a health condition has been observed</title></rect><text x="638" y="225" text-anchor="middle" font-family="Cambria" font-size="12" fill="black"><tspan x="638" y="225"  text-anchor="middle">health state period</tspan></text>
</a></g>
<g><!-- health condition -->
<a xlink:href="health condition.svg" role="link"><rect x="297" y="135" width="108" height="130" fill="white" stroke="black" stroke-width="2" ><title>aspect of a health state</title></rect><text x="351" y="155" text-anchor="middle" font-family="Cambria" font-size="12" fill="black"><tspan x="351" y="155"  text-anchor="middle">health condition</tspan></text>
</a></g>
<!-- (87,342) to (351,267) potential health condition has generalization health condition -->
<line x1="87" y1="342" x2="87" y2="322" stroke="black" stroke-width="2" /><line x1="351" y1="267" x2="351" y2="322" stroke="black" stroke-width="2" /><line x1="87" y1="322" x2="351" y2="322" stroke="black" stroke-width="2" /><polygon points="351,267 346,277 356,277" fill="white" stroke="black" stroke-width="2" /><g><!-- potential health condition -->
<a xlink:href="potential health condition.svg" role="link"><rect x="33" y="342" width="108" height="50" fill="white" stroke="black" stroke-width="2" ><title>possible future or current health condition described by a care actor</title></rect><text x="87" y="362" text-anchor="middle" font-family="Cambria" font-size="12" fill="black"><tspan x="87" y="362"  text-anchor="middle">potential health condition</tspan></text>
</a></g>
<!-- (262,342) to (351,267) observed condition has generalization health condition -->
<line x1="262" y1="342" x2="262" y2="322" stroke="black" stroke-width="2" /><line x1="351" y1="267" x2="351" y2="322" stroke="black" stroke-width="2" /><line x1="262" y1="322" x2="351" y2="322" stroke="black" stroke-width="2" /><polygon points="351,267 346,277 356,277" fill="white" stroke="black" stroke-width="2" /><g><!-- observed condition -->
<a xlink:href="observed condition.svg" role="link"><rect x="208" y="342" width="108" height="50" fill="white" stroke="black" stroke-width="2" ><title>health condition observed by a care actor</title></rect><text x="262" y="362" text-anchor="middle" font-family="Cambria" font-size="12" fill="black"><tspan x="262" y="362"  text-anchor="middle">observed condition</tspan></text>
</a></g>
<!-- (437,342) to (351,267) health issue has generalization health condition -->
<line x1="437" y1="342" x2="437" y2="322" stroke="black" stroke-width="2" /><line x1="351" y1="267" x2="351" y2="322" stroke="black" stroke-width="2" /><line x1="437" y1="322" x2="351" y2="322" stroke="black" stroke-width="2" /><polygon points="351,267 346,277 356,277" fill="white" stroke="black" stroke-width="2" /><g><!-- health issue -->
<a xlink:href="health issue.svg" role="link"><rect x="383" y="342" width="108" height="50" fill="white" stroke="black" stroke-width="2" ><title>health condition motivating care</title></rect><text x="437" y="362" text-anchor="middle" font-family="Cambria" font-size="12" fill="black"><tspan x="437" y="362"  text-anchor="middle">health issue</tspan></text>
</a></g>
<!-- (612,342) to (351,267) resultant condition has generalization health condition -->
<line x1="612" y1="342" x2="612" y2="322" stroke="black" stroke-width="2" /><line x1="351" y1="267" x2="351" y2="322" stroke="black" stroke-width="2" /><line x1="612" y1="322" x2="351" y2="322" stroke="black" stroke-width="2" /><polygon points="351,267 346,277 356,277" fill="white" stroke="black" stroke-width="2" /><g><!-- resultant condition -->
<a xlink:href="resultant condition.svg" role="link"><rect x="558" y="342" width="108" height="50" fill="white" stroke="black" stroke-width="2" ><title>observed condition representing an output health state</title></rect><text x="612" y="362" text-anchor="middle" font-family="Cambria" font-size="12" fill="black"><tspan x="612" y="362"  text-anchor="middle">resultant condition</tspan></text>
</a></g>
</svg>