<svg xmlns="http://www.w3.org/2000/svg" xmlns:xlink="http://www.w3.org/1999/xlink" version="1.1" viewBox="0 0 702 197 aria-labelledby="title desc" role="img""><title id="title">UML Class Diagram of knowledge and related concepts</title><desc  id="desc">An UML Class Diagram of the concept knowledge and the concepts related to it.</desc><g><!-- knowledge -->
<a xlink:href="knowledge.svg"><rect x="297" y="10" width="108" height="50" fill="white" stroke="black" stroke-width="2" ><title>maintained, processed, and interpreted information</title></rect><text x="351" y="20" text-anchor="middle" font-family="Cambria" font-size="12" fill="black"><tspan x="351" y="20"  text-anchor="middle">knowledge</tspan></text>
</a></g>
<!-- (87,137) to (351,62) care guideline has generalization knowledge -->
<line x1="87" y1="137" x2="87" y2="117" stroke="black" stroke-width="2" /><line x1="351" y1="62" x2="351" y2="117" stroke="black" stroke-width="2" /><line x1="87" y1="117" x2="351" y2="117" stroke="black" stroke-width="2" /><polygon points="351,62 346,72 356,72" fill="white" stroke="black" stroke-width="2" /><g><!-- care guideline -->
<a xlink:href="care guideline.svg"><rect x="33" y="137" width="108" height="50" fill="whitesmoke" stroke="black" stroke-width="2" ><title>set of systematically developed statements to assist the decisions made by care actors about care activities to be performed with regard to specified health circumstances </title></rect><text x="87" y="147" text-anchor="middle" font-family="Cambria" font-size="12" fill="black"><tspan x="87" y="147"  text-anchor="middle">care guideline</tspan></text>
</a></g>
<!-- (262,137) to (351,62) core care plan has generalization knowledge -->
<line x1="262" y1="137" x2="262" y2="117" stroke="black" stroke-width="2" /><line x1="351" y1="62" x2="351" y2="117" stroke="black" stroke-width="2" /><line x1="262" y1="117" x2="351" y2="117" stroke="black" stroke-width="2" /><polygon points="351,62 346,72 356,72" fill="white" stroke="black" stroke-width="2" /><g><!-- core care plan -->
<a xlink:href="core care plan.svg"><rect x="208" y="137" width="108" height="50" fill="whitesmoke" stroke="black" stroke-width="2" ><title>care plan with reusable content addressing one or more specified health circumstances</title></rect><text x="262" y="147" text-anchor="middle" font-family="Cambria" font-size="12" fill="black"><tspan x="262" y="147"  text-anchor="middle">core care plan</tspan></text>
</a></g>
<!-- (437,137) to (351,62) care pathway has generalization knowledge -->
<line x1="437" y1="137" x2="437" y2="117" stroke="black" stroke-width="2" /><line x1="351" y1="62" x2="351" y2="117" stroke="black" stroke-width="2" /><line x1="437" y1="117" x2="351" y2="117" stroke="black" stroke-width="2" /><polygon points="351,62 346,72 356,72" fill="white" stroke="black" stroke-width="2" /><g><!-- care pathway -->
<a xlink:href="care pathway.svg"><rect x="383" y="137" width="108" height="50" fill="whitesmoke" stroke="black" stroke-width="2" ><title>detailed guidance for each stage in the interdisciplinary management of a subject of care</title></rect><text x="437" y="147" text-anchor="middle" font-family="Cambria" font-size="12" fill="black"><tspan x="437" y="147"  text-anchor="middle">care pathway</tspan></text>
</a></g>
<!-- (612,137) to (351,62) information model has generalization knowledge -->
<line x1="612" y1="137" x2="612" y2="117" stroke="black" stroke-width="2" /><line x1="351" y1="62" x2="351" y2="117" stroke="black" stroke-width="2" /><line x1="612" y1="117" x2="351" y2="117" stroke="black" stroke-width="2" /><polygon points="351,62 346,72 356,72" fill="white" stroke="black" stroke-width="2" /><g><!-- information model -->
<a xlink:href="information model.svg"><rect x="558" y="137" width="108" height="50" fill="white" stroke="black" stroke-width="2" ><title>formal model of a bounded set of facts, concepts or instructions to meet a specified requirement</title></rect><text x="612" y="147" text-anchor="middle" font-family="Cambria" font-size="12" fill="black"><tspan x="612" y="147"  text-anchor="middle">information model</tspan></text>
</a></g>
</svg>