<svg xmlns="http://www.w3.org/2000/svg" xmlns:xlink="http://www.w3.org/1999/xlink" version="1.1" viewBox="0 0 702 332" aria-labelledby="title desc" role="img"><title id="title">UML Class Diagram of potential health condition and related concepts</title><desc  id="desc">An UML Class Diagram of the concept potential health condition and the concepts related to it.</desc><!-- Generalisations of the Focal Class potential health condition
 -->
<g><!-- health condition -->
<a xlink:href="../health-condition.html" role="link"><rect x="297" y="10" width="108" height="50" fill="white" stroke="black" stroke-width="2" ><title>aspect of a health state</title></rect><text x="351" y="25" text-anchor="middle" font-family="Cambria" font-size="12" fill="black"><tspan x="351" y="25"  text-anchor="middle">health condition</tspan></text>
</a></g>
<!-- (351,135) to (351,62) potential health condition has generalization health condition -->
<line x1="351" y1="135" x2="351" y2="115" stroke="black" stroke-width="2" /><line x1="351" y1="62" x2="351" y2="115" stroke="black" stroke-width="2" /><line x1="351" y1="115" x2="351" y2="115" stroke="black" stroke-width="2" /><polygon points="351,62 346,72 356,72" fill="white" stroke="black" stroke-width="2" /><g> <!-- Association care actor describes potential health condition -->
<line x1="118" y1="160" x2="297" y2="160" stroke="black" stroke-width="2" /><text x="130" y="153" text-anchor="middle" font-family="Cambria" font-size="12" fill="black"><tspan x="130" y="153"  text-anchor="middle">1..*</tspan></text>
<text x="287" y="153" text-anchor="middle" font-family="Cambria" font-size="12" fill="black"><tspan x="287" y="153"  text-anchor="middle">0..*</tspan></text>
<text x="207" y="174" text-anchor="middle" font-family="Cambria" font-size="12" fill="black"><tspan x="207" y="174"  text-anchor="middle">describes</tspan></text>

</g>
<g><!-- care actor -->
<a xlink:href="../care-actor.html" role="link"><rect x="10" y="135" width="108" height="50" fill="whitesmoke" stroke="black" stroke-width="2" ><title>organization or person participating in care</title></rect><text x="64" y="150" text-anchor="middle" font-family="Cambria" font-size="12" fill="black"><tspan x="64" y="150"  text-anchor="middle">care actor</tspan></text>
</a></g>
<g><!-- potential health condition -->
<a xlink:href="../potential-health-condition.html" role="link"><rect x="297" y="135" width="108" height="60" fill="white" stroke="black" stroke-width="2" ><title>possible future or current health condition described by a care actor</title></rect><text x="351" y="150" text-anchor="middle" font-family="Cambria" font-size="12" fill="black"><tspan x="351" y="150"  text-anchor="middle">potential health</tspan><tspan x="351" y="164"  text-anchor="middle">condition</tspan></text>
</a></g>
<!-- (87,272) to (351,197) target condition has generalization potential health condition -->
<line x1="87" y1="272" x2="87" y2="252" stroke="black" stroke-width="2" /><line x1="351" y1="197" x2="351" y2="252" stroke="black" stroke-width="2" /><line x1="87" y1="252" x2="351" y2="252" stroke="black" stroke-width="2" /><polygon points="351,197 346,207 356,207" fill="white" stroke="black" stroke-width="2" /><g><!-- target condition -->
<a xlink:href="../target-condition.html" role="link"><rect x="33" y="272" width="108" height="50" fill="white" stroke="black" stroke-width="2" ><title>potential health condition representing health objectives and/or care goals</title></rect><text x="87" y="287" text-anchor="middle" font-family="Cambria" font-size="12" fill="black"><tspan x="87" y="287"  text-anchor="middle">target condition</tspan></text>
</a></g>
<!-- (262,272) to (351,197) risk condition has generalization potential health condition -->
<line x1="262" y1="272" x2="262" y2="252" stroke="black" stroke-width="2" /><line x1="351" y1="197" x2="351" y2="252" stroke="black" stroke-width="2" /><line x1="262" y1="252" x2="351" y2="252" stroke="black" stroke-width="2" /><polygon points="351,197 346,207 356,207" fill="white" stroke="black" stroke-width="2" /><g><!-- risk condition -->
<a xlink:href="../risk-condition.html" role="link"><rect x="208" y="272" width="108" height="50" fill="white" stroke="black" stroke-width="2" ><title>health condition representing a potential undesired future health state</title></rect><text x="262" y="287" text-anchor="middle" font-family="Cambria" font-size="12" fill="black"><tspan x="262" y="287"  text-anchor="middle">risk condition</tspan></text>
</a></g>
<!-- (437,272) to (351,197) considered condition has generalization potential health condition -->
<line x1="437" y1="272" x2="437" y2="252" stroke="black" stroke-width="2" /><line x1="351" y1="197" x2="351" y2="252" stroke="black" stroke-width="2" /><line x1="437" y1="252" x2="351" y2="252" stroke="black" stroke-width="2" /><polygon points="351,197 346,207 356,207" fill="white" stroke="black" stroke-width="2" /><g><!-- considered condition -->
<a xlink:href="../considered-condition.html" role="link"><rect x="383" y="272" width="108" height="50" fill="white" stroke="black" stroke-width="2" ><title>potential health condition considered by a care actor on the basis of one or more observed conditions</title></rect><text x="437" y="287" text-anchor="middle" font-family="Cambria" font-size="12" fill="black"><tspan x="437" y="287"  text-anchor="middle">considered</tspan><tspan x="437" y="301"  text-anchor="middle">condition</tspan></text>
</a></g>
<!-- (612,272) to (351,197) prognostic condition has generalization potential health condition -->
<line x1="612" y1="272" x2="612" y2="252" stroke="black" stroke-width="2" /><line x1="351" y1="197" x2="351" y2="252" stroke="black" stroke-width="2" /><line x1="612" y1="252" x2="351" y2="252" stroke="black" stroke-width="2" /><polygon points="351,197 346,207 356,207" fill="white" stroke="black" stroke-width="2" /><g><!-- prognostic condition -->
<a xlink:href="../prognostic-condition.html" role="link"><rect x="558" y="272" width="108" height="50" fill="white" stroke="black" stroke-width="2" ><title>potential health condition representing the expected course of a health state as assessed by care professionals</title></rect><text x="612" y="287" text-anchor="middle" font-family="Cambria" font-size="12" fill="black"><tspan x="612" y="287"  text-anchor="middle">prognostic</tspan><tspan x="612" y="301"  text-anchor="middle">condition</tspan></text>
</a></g>
</svg>