<svg xmlns="http://www.w3.org/2000/svg" xmlns:xlink="http://www.w3.org/1999/xlink" version="1.1" viewBox="0 0 702 207"><title>UML Class Diagram of resource and related concepts</title><desc>An UML Class Diagram of the concept resource and the concepts related to it.</desc><g> <!-- Association resource care care -->
<line x1="405" y1="35" x2="584" y2="35" stroke="black" stroke-width="2" /><text x="417" y="28" text-anchor="middle" font-family="Cambria" font-size="12" fill="black"><tspan x="417" y="28"  text-anchor="middle">1..*</tspan></text>
<text x="565" y="28" text-anchor="middle" font-family="Cambria" font-size="12" fill="black"><tspan x="565" y="28"  text-anchor="middle">0..*</tspan></text>
<polygon points="562,35 572,30 582,35 572,40" fill="white" stroke="black" stroke-width="2" />
</g>
<g><!-- care -->
<a xlink:href="care.svg"><rect x="584" y="10" width="108" height="50" fill="white" stroke="black" stroke-width="2" ><title>care activities, services, management or supplies related to the health of an individual   </title></rect><text x="638" y="20" text-anchor="middle" font-family="Cambria" font-size="12" fill="black"><tspan x="638" y="20"  text-anchor="middle">care</tspan></text>
</a></g>
<g><!-- resource -->
<a xlink:href="resource.svg"><rect x="297" y="10" width="108" height="60" fill="white" stroke="black" stroke-width="2" ><title>asset that is utilized or consumed during the execution of activities </title></rect><text x="351" y="20" text-anchor="middle" font-family="Cambria" font-size="12" fill="black"><tspan x="351" y="20"  text-anchor="middle">resource</tspan></text>
</a></g>
<!-- (117,147) to (351,72) care resource has generalization resource -->
<line x1="117" y1="147" x2="117" y2="127" stroke="black" stroke-width="2" /><line x1="351" y1="72" x2="351" y2="127" stroke="black" stroke-width="2" /><line x1="117" y1="127" x2="351" y2="127" stroke="black" stroke-width="2" /><polygon points="351,72 346,82 356,82" fill="white" stroke="black" stroke-width="2" /><g><!-- care resource -->
<a xlink:href="care resource.svg"><rect x="63" y="147" width="108" height="50" fill="whitesmoke" stroke="black" stroke-width="2" ><title>resource needed to perform care activities</title></rect><text x="117" y="157" text-anchor="middle" font-family="Cambria" font-size="12" fill="black"><tspan x="117" y="157"  text-anchor="middle">care resource</tspan></text>
</a></g>
<!-- (351,147) to (351,72) data repository has generalization resource -->
<line x1="351" y1="147" x2="351" y2="127" stroke="black" stroke-width="2" /><line x1="351" y1="72" x2="351" y2="127" stroke="black" stroke-width="2" /><line x1="351" y1="127" x2="351" y2="127" stroke="black" stroke-width="2" /><polygon points="351,72 346,82 356,82" fill="white" stroke="black" stroke-width="2" /><g><!-- data repository -->
<a xlink:href="data repository.svg"><rect x="297" y="147" width="108" height="50" fill="white" stroke="black" stroke-width="2" ><title>identifiable data storage facility</title></rect><text x="351" y="157" text-anchor="middle" font-family="Cambria" font-size="12" fill="black"><tspan x="351" y="157"  text-anchor="middle">data repository</tspan></text>
</a></g>
<!-- (585,147) to (351,72) care funds has generalization resource -->
<line x1="585" y1="147" x2="585" y2="127" stroke="black" stroke-width="2" /><line x1="351" y1="72" x2="351" y2="127" stroke="black" stroke-width="2" /><line x1="585" y1="127" x2="351" y2="127" stroke="black" stroke-width="2" /><polygon points="351,72 346,82 356,82" fill="white" stroke="black" stroke-width="2" /><g><!-- care funds -->
<a xlink:href="care funds.svg"><rect x="531" y="147" width="108" height="50" fill="whitesmoke" stroke="black" stroke-width="2" ><title>resource provided for funding care delivery</title></rect><text x="585" y="157" text-anchor="middle" font-family="Cambria" font-size="12" fill="black"><tspan x="585" y="157"  text-anchor="middle">care funds</tspan></text>
</a></g>
</svg>