<svg xmlns="http://www.w3.org/2000/svg" xmlns:xlink="http://www.w3.org/1999/xlink" version="1.1" viewBox="0 0 702 197"><g><!-- role -->
<a xlink:href="role.svg"><rect x="297" y="10" width="108" height="50" fill="white" stroke="black" stroke-width="2" ><title>set of competencies and/or performances that are associated with a task</title></rect><text x="351" y="20" text-anchor="middle" font-family="Cambria" font-size="12" fill="black"><tspan x="351" y="20"  text-anchor="middle">role</tspan></text>
</a></g>
<!-- (175,137) to (351,62) organization role has generalization role -->
<line x1="175" y1="137" x2="175" y2="117" stroke="black" stroke-width="2" /><line x1="351" y1="62" x2="351" y2="117" stroke="black" stroke-width="2" /><line x1="175" y1="117" x2="351" y2="117" stroke="black" stroke-width="2" /><polygon points="351,62 346,72 356,72" fill="white" stroke="black" stroke-width="2" /><g><!-- organization role -->
<a xlink:href="organization role.svg"><rect x="121" y="137" width="108" height="50" fill="whitesmoke" stroke="black" stroke-width="2" ><title>role played by an organization</title></rect><text x="175" y="147" text-anchor="middle" font-family="Cambria" font-size="12" fill="black"><tspan x="175" y="147"  text-anchor="middle">organization</tspan><tspan x="175" y="161"  text-anchor="middle">role</tspan></text>
</a></g>
<!-- (526,137) to (351,62) person role has generalization role -->
<line x1="526" y1="137" x2="526" y2="117" stroke="black" stroke-width="2" /><line x1="351" y1="62" x2="351" y2="117" stroke="black" stroke-width="2" /><line x1="526" y1="117" x2="351" y2="117" stroke="black" stroke-width="2" /><polygon points="351,62 346,72 356,72" fill="white" stroke="black" stroke-width="2" /><g><!-- person role -->
<a xlink:href="person role.svg"><rect x="472" y="137" width="108" height="50" fill="whitesmoke" stroke="black" stroke-width="2" ><title>role played by a person</title></rect><text x="526" y="147" text-anchor="middle" font-family="Cambria" font-size="12" fill="black"><tspan x="526" y="147"  text-anchor="middle">person role</tspan></text>
</a></g>
</svg>